# xmcd
#
# Track frame offsets:
#	150
#	22455
#	25311
#	44438
#	65602
#	71356
#	89607
#	108165
#	124377
#	146076
#	149980
#	167534
#	183483
#	203704
#	213388
#
# Disc length: 2931 seconds
#
# Revision: 1
# Processed by: cddbd v1.5.1PL0 Copyright (c) Steve Scherf et al.
# Submitted via: audiograbber 1.83.01
#
DISCID=f10b710f
DTITLE=Richie Kotzen - Slow
DYEAR=1900
DGENRE=
TTITLE0=Data Track
TTITLE1=Ohio
TTITLE2=Scared of you
TTITLE3=Gold digger
TTITLE4=The answer
TTITLE5=Slow
TTITLE6=Dont wanna lie
TTITLE7=Got it bad
TTITLE8=I can make you happy
TTITLE9=Sapphire
TTITLE10=Come back
TTITLE11=Rely on me
TTITLE12=Lets say goodbye
TTITLE13=Conflicted
TTITLE14=CoNfLiCtEd (reprise)
EXTD=
EXTT0=
EXTT1=
EXTT2=
EXTT3=
EXTT4=
EXTT5=
EXTT6=
EXTT7=
EXTT8=
EXTT9=
EXTT10=
EXTT11=
EXTT12=
EXTT13=
EXTT14=
PLAYORDER=
